squats_1_grf
version=1
nRows=37
nColumns=19
inDegrees=no
endheader
time	ground_force_right_vx	ground_force_right_vy	ground_force_right_vz	ground_force_right_px	ground_force_right_py	ground_force_right_pz	ground_force_right_mx	ground_force_right_my	ground_force_right_mz	ground_force_left_vx	ground_force_left_vy	ground_force_left_vz	ground_force_left_px	ground_force_left_py	ground_force_left_pz	ground_force_left_mx	ground_force_left_my	ground_force_left_mz
     33.87200000	     13.26004394	    357.58189334	     34.77309669	     -3.45101676	      0.00739029	      2.29353178	     -0.02619511	      8.98687706	      0.04069034	    -33.44929756	    276.22937218	    -31.05117374	     -3.46067781	      0.00798520	      2.67311762	      0.00749525	     -2.25590424	      0.00391733
     33.87300000	     13.27476150	    357.12328767	     34.76252326	     -3.45092608	      0.00739053	      2.29353727	     -0.02623978	      9.00220033	      0.04075972	    -33.35750202	    275.92828506	    -30.88896264	     -3.46048914	      0.00798578	      2.67308762	      0.00740670	     -2.22925075	      0.00387105
     33.87400000	     13.28861510	    356.67551845	     34.75307200	     -3.45083373	      0.00739078	      2.29354262	     -0.02628357	      9.01722381	      0.04082774	    -33.26620823	    275.62291691	    -30.73068756	     -3.46030260	      0.00798635	      2.67305836	      0.00731775	     -2.20247780	      0.00382455
     33.87500000	     13.30118482	    356.23899306	     34.74484318	     -3.45073955	      0.00739103	      2.29354779	     -0.02632646	      9.03193847	      0.04089437	    -33.17554480	    275.31245051	    -30.57644474	     -3.46011813	      0.00798691	      2.67302995	      0.00722840	     -2.17558749	      0.00377786
     33.87600000	     13.31205355	    355.81409092	     34.73795459	     -3.45064339	      0.00739129	      2.29355277	     -0.02636843	      9.04633752	      0.04095956	    -33.08559952	    274.99612637	    -30.42628643	     -3.45993568	      0.00798747	      2.67300244	      0.00713868	     -2.14858220	      0.00373097
     33.87700000	     13.32081049	    355.40116253	     34.73254082	     -3.45054513	      0.00739155	      2.29355753	     -0.02640947	      9.06041643	      0.04102331	    -32.99642024	    274.67324814	    -30.28022212	     -3.45975516	      0.00798802	      2.67297591	      0.00704858	     -2.12146450	      0.00368388
     33.87800000	     13.32705444	    355.00052885	     34.72875229	     -3.45044466	      0.00739182	      2.29356205	     -0.02644957	      9.07417297	      0.04108560	    -32.90801613	    274.34318712	    -30.13822022	     -3.45957649	      0.00798857	      2.67295040	      0.00695811	     -2.09423708	      0.00363660
     33.87900000	     13.33039693	    354.61248125	     34.72675399	     -3.45034186	      0.00739210	      2.29356630	     -0.02648872	      9.08760721	      0.04114642	    -32.82035912	    274.00538611	    -30.00021033	     -3.45939954	      0.00798912	      2.67292598	      0.00686730	     -2.06690282	      0.00358913
     33.88000000	     13.33046509	    354.23728167	     34.72672390	     -3.45023667	      0.00739239	      2.29357026	     -0.02652695	      9.10072150	      0.04120580	    -32.73338574	    273.65936224	    -29.86608581	     -3.45922418	      0.00798966	      2.67290267	      0.00677613	     -2.03946475	      0.00354149
     33.88100000	     13.32690422	    353.87516324	     34.72885121	     -3.45012903	      0.00739269	      2.29357388	     -0.02656426	      9.11352039	      0.04126375	    -32.64699920	    273.30470900	    -29.73570682	     -3.45905026	      0.00799020	      2.67288050	      0.00668464	     -2.01192612	      0.00349367
     33.88200000	     13.31938012	    353.52633102	     34.73333420	     -3.45001889	      0.00739300	      2.29357714	     -0.02660066	      9.12601054	      0.04132030	    -32.56107168	    272.94109734	    -29.60890349	     -3.45887761	      0.00799074	      2.67285950	      0.00659282	     -1.98429043	      0.00344568
     33.88300000	     13.30758115	    353.19096289	     34.74037805	     -3.44990626	      0.00739331	      2.29358000	     -0.02663619	      9.13820058	      0.04137550	    -32.47544702	    272.56827591	    -29.48547939	     -3.45870606	      0.00799127	      2.67283967	      0.00650069	     -1.95656154	      0.00339753
     33.88400000	     13.29122004	    352.86921055	     34.75019230	     -3.44979114	      0.00739364	      2.29358243	     -0.02667088	      9.15010086	      0.04142938	    -32.38994363	    272.18607047	    -29.36521516	     -3.45853542	      0.00799181	      2.67282101	      0.00640826	     -1.92874367	      0.00334922
     33.88500000	     13.27003542	    352.56120052	     34.76298827	     -3.44967358	      0.00739397	      2.29358438	     -0.02670476	      9.16172332	      0.04148200	    -32.30435770	    271.79438241	    -29.24787219	     -3.45836549	      0.00799234	      2.67280351	      0.00631556	     -1.90084154	      0.00330077
     33.88600000	     13.24379328	    352.26703519	     34.77897635	     -3.44955363	      0.00739431	      2.29358582	     -0.02673787	      9.17308114	      0.04153343	    -32.21846666	    271.39318661	    -29.13319633	     -3.45819605	      0.00799288	      2.67278715	      0.00622259	     -1.87286039	      0.00325218
     33.88700000	     13.21228814	    351.98679390	     34.79836326	     -3.44943140	      0.00739467	      2.29358671	     -0.02677024	      9.18418850	      0.04158372	    -32.13203303	    270.98252846	    -29.02092165	     -3.45802690	      0.00799341	      2.67277189	      0.00612938	     -1.84480602	      0.00320347
     33.88800000	     13.17534414	    351.72053393	     34.82134926	     -3.44930701	      0.00739503	      2.29358700	     -0.02680193	      9.19506027	      0.04163294	    -32.04480832	    270.56252034	    -28.91077412	     -3.45785782	      0.00799395	      2.67275769	      0.00603595	     -1.81668491	      0.00315463
     33.88900000	     13.13281600	    351.46829159	     34.84812545	     -3.44918060	      0.00739540	      2.29358666	     -0.02683298	      9.20571170	      0.04168117	    -31.95653735	    270.13333750	    -28.80247525	     -3.45768859	      0.00799449	      2.67274451	      0.00594232	     -1.78850418	      0.00310570
     33.89000000	     13.08458988	    351.23008331	     34.87887111	     -3.44905234	      0.00739578	      2.29358563	     -0.02686343	      9.21615809	      0.04172847	    -31.86696265	    269.69521342	    -28.69574559	     -3.45751901	      0.00799503	      2.67273227	      0.00584851	     -1.76027169	      0.00305667
     33.89100000	     13.03058413	    351.00590672	     34.91375119	     -3.44892242	      0.00739616	      2.29358389	     -0.02689332	      9.22641454	      0.04177491	    -31.77582894	    269.24843488	    -28.59030820	     -3.45734885	      0.00799558	      2.67272090	      0.00575457	     -1.73199606	      0.00300757
     33.89200000	     12.97075002	    350.79574169	     34.95291387	     -3.44879106	      0.00739656	      2.29358138	     -0.02692271	      9.23649563	      0.04182055	    -31.68288778	    268.79333656	    -28.48589187	     -3.45717794	      0.00799613	      2.67271034	      0.00566051	     -1.70368672	      0.00295841
     33.89300000	     12.90507235	    350.59955142	     34.99648836	     -3.44865849	      0.00739696	      2.29357808	     -0.02695162	      9.24641518	      0.04186547	    -31.58790209	    268.33029551	    -28.38223411	     -3.45700608	      0.00799668	      2.67270048	      0.00556637	     -1.67535394	      0.00290922
     33.89400000	     12.83357004	    350.41728340	     35.04458281	     -3.44852496	      0.00739737	      2.29357393	     -0.02698010	      9.25618603	      0.04190971	    -31.49065065	    267.85972549	    -28.27908408	     -3.45683310	      0.00799724	      2.67269124	      0.00547220	     -1.64700886	      0.00285999
     33.89500000	     12.75629662	    350.24887027	     35.09728247	     -3.44839074	      0.00739778	      2.29356891	     -0.02700818	      9.26581982	      0.04195333	    -31.39093240	    267.38207123	    -28.17620506	     -3.45665885	      0.00799780	      2.67268252	      0.00537802	     -1.61866354	      0.00281077
     33.89600000	     12.67334065	    350.09423067	     35.15464803	     -3.44825609	      0.00739820	      2.29356299	     -0.02703589	      9.27532683	      0.04199637	    -31.28857049	    266.89780282	    -28.07337684	     -3.45648319	      0.00799837	      2.67267420	      0.00528388	     -1.59033093	      0.00276157
     33.89700000	     12.58482605	    349.95326987	     35.21671422	     -3.44812131	      0.00739862	      2.29355613	     -0.02706326	      9.28471585	      0.04203888	    -31.18341605	    266.40741033	    -27.97039774	     -3.45630602	      0.00799895	      2.67266618	      0.00518984	     -1.56202489	      0.00271242
     33.89800000	     12.49091237	    349.82588029	     35.28348862	     -3.44798669	      0.00739905	      2.29354831	     -0.02709030	      9.29399404	      0.04208089	    -31.07535160	    265.91139865	    -27.86708636	     -3.45612724	      0.00799953	      2.67265835	      0.00509593	     -1.53376016	      0.00266334
     33.89900000	     12.39179487	    349.71194186	     35.35495072	     -3.44785252	      0.00739948	      2.29353951	     -0.02711704	      9.30316692	      0.04212242	    -30.96429404	    265.41028272	    -27.76328308	     -3.45594678	      0.00800011	      2.67265059	      0.00500221	     -1.50555229	      0.00261436
     33.90000000	     12.28770453	    349.61132211	     35.43105118	     -3.44771910	      0.00739992	      2.29352970	     -0.02714348	      9.31223830	      0.04216350	    -30.85019716	    264.90458312	    -27.65885116	     -3.45576461	      0.00800070	      2.67264278	      0.00490873	     -1.47741755	      0.00256550
     33.90100000	     12.17890793	    349.52387602	     35.51171131	     -3.44758671	      0.00740035	      2.29351887	     -0.02716963	      9.32121030	      0.04220412	    -30.73305366	    264.39482217	    -27.55367765	     -3.45558069	      0.00800130	      2.67263482	      0.00481555	     -1.44937278	      0.00251680
     33.90200000	     12.06570689	    349.44944544	     35.59682273	     -3.44745565	      0.00740079	      2.29350700	     -0.02719550	      9.33008340	      0.04224430	    -30.61289664	    263.88152046	    -27.44767389	     -3.45539503	      0.00800190	      2.67262660	      0.00472273	     -1.42143527	      0.00246829
     33.90300000	     11.94843805	    349.38785813	     35.68624717	     -3.44732619	      0.00740122	      2.29349410	     -0.02722107	      9.33885651	      0.04228402	    -30.48980047	    263.36519384	    -27.34077581	     -3.45520766	      0.00800251	      2.67261801	      0.00463032	     -1.39362255	      0.00242000
     33.90400000	     11.82747219	    349.33892642	     35.77981646	     -3.44719859	      0.00740166	      2.29348014	     -0.02724634	      9.34752704	      0.04232328	    -30.36388115	    262.84635096	    -27.23294391	     -3.45501862	      0.00800312	      2.67260895	      0.00453838	     -1.36595218	      0.00237195
     33.90500000	     11.70321344	    349.30244532	     35.87733268	     -3.44707310	      0.00740209	      2.29346512	     -0.02727131	      9.35609102	      0.04236205	    -30.23529601	    262.32549132	    -27.12416308	     -3.45482799	      0.00800374	      2.67259933	      0.00444698	     -1.33844158	      0.00232417
     33.90600000	     11.57609815	    349.27819031	     35.97856843	     -3.44694995	      0.00740252	      2.29344906	     -0.02729594	      9.36454325	      0.04240032	    -30.10424290	    261.80310367	    -27.01444215	     -3.45463586	      0.00800436	      2.67258907	      0.00435616	     -1.31110772	      0.00227671
     33.90700000	     11.44659356	    349.26591474	     36.08326731	     -3.44682936	      0.00740295	      2.29343193	     -0.02732024	      9.37287741	      0.04243806	    -29.97095875	    261.27966492	    -26.90381335	     -3.45444234	      0.00800499	      2.67257810	      0.00426599	     -1.28396696	      0.00222958
     33.90800000	     11.31519606	    349.26534692	     36.19114451	     -3.44671151	      0.00740338	      2.29341376	     -0.02734416	      9.38108620	      0.04247522	    -29.83571758	    260.75563937	    -26.79233155	     -3.45424756	      0.00800561	      2.67256637	      0.00417651	     -1.25703482	      0.00218281
